<svg width="25" height="24" viewBox="0 0 25 24" fill="none" xmlns="http://www.w3.org/2000/svg">
<path d="M17.3201 20.768L4.25306 3.968C4.18419 3.87931 4.14159 3.77307 4.1301 3.66137C4.11861 3.54967 4.13871 3.43698 4.18809 3.33613C4.23747 3.23528 4.31416 3.15032 4.40944 3.09089C4.50472 3.03147 4.61477 2.99998 4.72706 3H7.20706C7.29836 3.00014 7.38842 3.0211 7.47038 3.06131C7.55235 3.10151 7.62406 3.15989 7.68006 3.232L20.7471 20.032C20.8159 20.1207 20.8585 20.2269 20.87 20.3386C20.8815 20.4503 20.8614 20.563 20.812 20.6639C20.7626 20.7647 20.686 20.8497 20.5907 20.9091C20.4954 20.9685 20.3854 21 20.2731 21H17.7931C17.7018 20.9999 17.6117 20.9789 17.5297 20.9387C17.4478 20.8985 17.3761 20.8401 17.3201 20.768Z" stroke="#F8F8F8" stroke-width="1.5"/>
<path d="M20.5 3L4.5 21" stroke="#F8F8F8" stroke-width="1.5" stroke-linecap="round"/>
</svg>
